<mxfile host="www.draw.io" modified="2019-11-18T01:16:44.647Z" agent="Mozilla/5.0 (Windows NT 10.0; Win64; x64; rv:70.0) Gecko/20100101 Firefox/70.0" etag="oaNzgk0BLBqsFeTo4NIN" version="12.2.6" type="github" pages="1">
  <diagram id="iVK3ShdwLWbgninj1tHv" name="Page-1">
    <mxGraphModel dx="1488" dy="998" grid="0" gridSize="10" guides="1" tooltips="1" connect="1" arrows="1" fold="1" page="0" pageScale="1" pageWidth="827" pageHeight="1169" math="0" shadow="0">
      <root>
        <mxCell id="0"/>
        <mxCell id="1" parent="0"/>
        <mxCell id="r77TQMJBqD1MutyU2JvS-3" value="" style="rounded=0;whiteSpace=wrap;html=1;fillColor=#dae8fc;strokeColor=#6c8ebf;" vertex="1" parent="1">
          <mxGeometry x="269.5" y="1640" width="244" height="376" as="geometry"/>
        </mxCell>
        <mxCell id="p2M6NOosVOnFMMnS_r7A-87" value="" style="rounded=0;whiteSpace=wrap;html=1;fontSize=18;fillColor=#fff2cc;strokeColor=#d6b656;" parent="1" vertex="1">
          <mxGeometry x="-148" y="1149" width="784" height="254" as="geometry"/>
        </mxCell>
        <mxCell id="p2M6NOosVOnFMMnS_r7A-80" value="" style="rounded=0;whiteSpace=wrap;html=1;fontSize=18;fillColor=#dae8fc;strokeColor=#6c8ebf;" parent="1" vertex="1">
          <mxGeometry x="128" y="1163" width="486" height="225" as="geometry"/>
        </mxCell>
        <mxCell id="p2M6NOosVOnFMMnS_r7A-79" value="" style="rounded=0;whiteSpace=wrap;html=1;fontSize=18;fillColor=#dae8fc;strokeColor=#6c8ebf;" parent="1" vertex="1">
          <mxGeometry x="-131" y="1163" width="211" height="225" as="geometry"/>
        </mxCell>
        <mxCell id="p2M6NOosVOnFMMnS_r7A-1" value="&lt;font style=&quot;font-size: 18px;&quot;&gt;程序&lt;/font&gt;" style="rounded=0;whiteSpace=wrap;html=1;fontSize=18;" parent="1" vertex="1">
          <mxGeometry x="-42" y="244" width="120" height="60" as="geometry"/>
        </mxCell>
        <mxCell id="p2M6NOosVOnFMMnS_r7A-2" value="" style="endArrow=classic;html=1;exitX=1;exitY=0.5;exitDx=0;exitDy=0;entryX=0;entryY=0.5;entryDx=0;entryDy=0;" parent="1" source="p2M6NOosVOnFMMnS_r7A-11" target="p2M6NOosVOnFMMnS_r7A-5" edge="1">
          <mxGeometry width="50" height="50" relative="1" as="geometry">
            <mxPoint x="-42" y="375" as="sourcePoint"/>
            <mxPoint x="156" y="274" as="targetPoint"/>
          </mxGeometry>
        </mxCell>
        <mxCell id="p2M6NOosVOnFMMnS_r7A-5" value="task_Instance" style="rounded=1;whiteSpace=wrap;html=1;fontSize=18;" parent="1" vertex="1">
          <mxGeometry x="293" y="244" width="120" height="60" as="geometry"/>
        </mxCell>
        <mxCell id="p2M6NOosVOnFMMnS_r7A-11" value="&lt;div&gt;循环任务&lt;/div&gt;&lt;div&gt;定时任务&lt;/div&gt;&lt;div&gt;中断任务&lt;br&gt;&lt;/div&gt;" style="shape=process;whiteSpace=wrap;html=1;backgroundOutline=1;" parent="1" vertex="1">
          <mxGeometry x="133.5" y="244" width="120" height="60" as="geometry"/>
        </mxCell>
        <mxCell id="p2M6NOosVOnFMMnS_r7A-12" value="" style="endArrow=classic;html=1;exitX=1;exitY=0.5;exitDx=0;exitDy=0;entryX=0;entryY=0.5;entryDx=0;entryDy=0;" parent="1" source="p2M6NOosVOnFMMnS_r7A-1" target="p2M6NOosVOnFMMnS_r7A-11" edge="1">
          <mxGeometry width="50" height="50" relative="1" as="geometry">
            <mxPoint x="78" y="274" as="sourcePoint"/>
            <mxPoint x="217" y="274" as="targetPoint"/>
          </mxGeometry>
        </mxCell>
        <mxCell id="p2M6NOosVOnFMMnS_r7A-14" value="" style="endArrow=none;html=1;" parent="1" edge="1">
          <mxGeometry width="50" height="50" relative="1" as="geometry">
            <mxPoint x="-261" y="593" as="sourcePoint"/>
            <mxPoint x="-211" y="543" as="targetPoint"/>
          </mxGeometry>
        </mxCell>
        <mxCell id="p2M6NOosVOnFMMnS_r7A-16" value="选择一种任务类型" style="text;html=1;resizable=0;points=[];align=center;verticalAlign=middle;labelBackgroundColor=#ffffff;" parent="p2M6NOosVOnFMMnS_r7A-14" vertex="1" connectable="0">
          <mxGeometry x="0.5" y="4" relative="1" as="geometry">
            <mxPoint x="419.5" y="-324" as="offset"/>
          </mxGeometry>
        </mxCell>
        <mxCell id="p2M6NOosVOnFMMnS_r7A-37" value="&lt;font style=&quot;font-size: 30px&quot;&gt;.............&lt;/font&gt;" style="text;html=1;resizable=0;points=[];align=center;verticalAlign=middle;labelBackgroundColor=#ffffff;fontSize=18;" parent="p2M6NOosVOnFMMnS_r7A-14" vertex="1" connectable="0">
          <mxGeometry x="0.2362" y="1" relative="1" as="geometry">
            <mxPoint x="441" y="-130.5" as="offset"/>
          </mxGeometry>
        </mxCell>
        <mxCell id="p2M6NOosVOnFMMnS_r7A-18" value="" style="endArrow=classic;html=1;exitX=1;exitY=0.5;exitDx=0;exitDy=0;" parent="1" edge="1">
          <mxGeometry width="50" height="50" relative="1" as="geometry">
            <mxPoint x="413.0000000000002" y="274" as="sourcePoint"/>
            <mxPoint x="467" y="274" as="targetPoint"/>
          </mxGeometry>
        </mxCell>
        <mxCell id="p2M6NOosVOnFMMnS_r7A-19" value="插入" style="text;html=1;resizable=0;points=[];align=center;verticalAlign=middle;labelBackgroundColor=#ffffff;" parent="p2M6NOosVOnFMMnS_r7A-18" vertex="1" connectable="0">
          <mxGeometry x="0.1407" y="-1" relative="1" as="geometry">
            <mxPoint x="-3.5" y="-1" as="offset"/>
          </mxGeometry>
        </mxCell>
        <mxCell id="p2M6NOosVOnFMMnS_r7A-28" value="程序" style="rounded=0;whiteSpace=wrap;html=1;fontSize=18;" parent="1" vertex="1">
          <mxGeometry x="-40" y="328" width="120" height="60" as="geometry"/>
        </mxCell>
        <mxCell id="p2M6NOosVOnFMMnS_r7A-29" value="" style="endArrow=classic;html=1;exitX=1;exitY=0.5;exitDx=0;exitDy=0;entryX=0;entryY=0.5;entryDx=0;entryDy=0;" parent="1" source="p2M6NOosVOnFMMnS_r7A-31" target="p2M6NOosVOnFMMnS_r7A-30" edge="1">
          <mxGeometry width="50" height="50" relative="1" as="geometry">
            <mxPoint x="-40" y="459" as="sourcePoint"/>
            <mxPoint x="158" y="358" as="targetPoint"/>
          </mxGeometry>
        </mxCell>
        <mxCell id="p2M6NOosVOnFMMnS_r7A-30" value="task_Instance" style="rounded=1;whiteSpace=wrap;html=1;fontSize=18;" parent="1" vertex="1">
          <mxGeometry x="295" y="328" width="120" height="60" as="geometry"/>
        </mxCell>
        <mxCell id="p2M6NOosVOnFMMnS_r7A-31" value="&lt;div&gt;循环任务&lt;/div&gt;&lt;div&gt;定时任务&lt;/div&gt;&lt;div&gt;中断任务&lt;br&gt;&lt;/div&gt;" style="shape=process;whiteSpace=wrap;html=1;backgroundOutline=1;" parent="1" vertex="1">
          <mxGeometry x="135.5" y="328" width="120" height="60" as="geometry"/>
        </mxCell>
        <mxCell id="p2M6NOosVOnFMMnS_r7A-32" value="" style="endArrow=classic;html=1;exitX=1;exitY=0.5;exitDx=0;exitDy=0;entryX=0;entryY=0.5;entryDx=0;entryDy=0;" parent="1" source="p2M6NOosVOnFMMnS_r7A-28" target="p2M6NOosVOnFMMnS_r7A-31" edge="1">
          <mxGeometry width="50" height="50" relative="1" as="geometry">
            <mxPoint x="80" y="358" as="sourcePoint"/>
            <mxPoint x="219" y="358" as="targetPoint"/>
          </mxGeometry>
        </mxCell>
        <mxCell id="p2M6NOosVOnFMMnS_r7A-33" value="选择一种任务类型" style="text;html=1;resizable=0;points=[];align=center;verticalAlign=middle;labelBackgroundColor=#ffffff;" parent="1" vertex="1" connectable="0">
          <mxGeometry x="-80.7786187444949" y="560.1217644950026" as="geometry">
            <mxPoint x="278" y="-243" as="offset"/>
          </mxGeometry>
        </mxCell>
        <mxCell id="p2M6NOosVOnFMMnS_r7A-34" value="" style="endArrow=classic;html=1;exitX=1;exitY=0.5;exitDx=0;exitDy=0;" parent="1" edge="1">
          <mxGeometry width="50" height="50" relative="1" as="geometry">
            <mxPoint x="415.0000000000002" y="357.9999999999999" as="sourcePoint"/>
            <mxPoint x="469" y="357.9999999999999" as="targetPoint"/>
          </mxGeometry>
        </mxCell>
        <mxCell id="p2M6NOosVOnFMMnS_r7A-35" value="插入" style="text;html=1;resizable=0;points=[];align=center;verticalAlign=middle;labelBackgroundColor=#ffffff;" parent="p2M6NOosVOnFMMnS_r7A-34" vertex="1" connectable="0">
          <mxGeometry x="0.1407" y="-1" relative="1" as="geometry">
            <mxPoint x="-3.5" y="-1" as="offset"/>
          </mxGeometry>
        </mxCell>
        <mxCell id="p2M6NOosVOnFMMnS_r7A-36" value="task_List" style="rounded=1;whiteSpace=wrap;html=1;fontSize=18;" parent="1" vertex="1">
          <mxGeometry x="470" y="244" width="120" height="204" as="geometry"/>
        </mxCell>
        <mxCell id="p2M6NOosVOnFMMnS_r7A-38" value="选择一种任务类型" style="text;html=1;resizable=0;points=[];align=center;verticalAlign=middle;labelBackgroundColor=#ffffff;" parent="1" vertex="1" connectable="0">
          <mxGeometry x="203.38393453853632" y="238.45921121197136" as="geometry">
            <mxPoint x="419.5" y="-324" as="offset"/>
          </mxGeometry>
        </mxCell>
        <mxCell id="p2M6NOosVOnFMMnS_r7A-39" value="选择一种任务类型" style="text;html=1;resizable=0;points=[];align=center;verticalAlign=middle;labelBackgroundColor=#ffffff;" parent="1" vertex="1" connectable="0">
          <mxGeometry x="203.38393453853632" y="238.45921121197148" as="geometry">
            <mxPoint x="419.5" y="-324" as="offset"/>
          </mxGeometry>
        </mxCell>
        <mxCell id="p2M6NOosVOnFMMnS_r7A-42" value="断点设置信息" style="rounded=0;whiteSpace=wrap;html=1;fontSize=18;" parent="1" vertex="1">
          <mxGeometry x="-4.5" y="808" width="120" height="60" as="geometry"/>
        </mxCell>
        <mxCell id="p2M6NOosVOnFMMnS_r7A-43" value="变量设置信息" style="rounded=0;whiteSpace=wrap;html=1;fontSize=18;" parent="1" vertex="1">
          <mxGeometry x="-4.5" y="947" width="120" height="60" as="geometry"/>
        </mxCell>
        <mxCell id="p2M6NOosVOnFMMnS_r7A-44" value="SCode/Gcode" style="rounded=0;whiteSpace=wrap;html=1;fontSize=18;" parent="1" vertex="1">
          <mxGeometry x="175" y="808" width="120" height="60" as="geometry"/>
        </mxCell>
        <mxCell id="p2M6NOosVOnFMMnS_r7A-45" value="变量表" style="rounded=0;whiteSpace=wrap;html=1;fontSize=18;" parent="1" vertex="1">
          <mxGeometry x="175" y="947" width="120" height="60" as="geometry"/>
        </mxCell>
        <mxCell id="p2M6NOosVOnFMMnS_r7A-46" value="通讯组件" style="rounded=0;whiteSpace=wrap;html=1;fontSize=18;" parent="1" vertex="1">
          <mxGeometry x="350" y="876" width="120" height="60" as="geometry"/>
        </mxCell>
        <mxCell id="p2M6NOosVOnFMMnS_r7A-47" value="Runtime" style="rounded=0;whiteSpace=wrap;html=1;fontSize=18;" parent="1" vertex="1">
          <mxGeometry x="538" y="876" width="120" height="60" as="geometry"/>
        </mxCell>
        <mxCell id="p2M6NOosVOnFMMnS_r7A-48" value="" style="endArrow=classic;html=1;fontSize=18;fontColor=#000000;exitX=1;exitY=0.5;exitDx=0;exitDy=0;entryX=0;entryY=0.5;entryDx=0;entryDy=0;" parent="1" source="p2M6NOosVOnFMMnS_r7A-42" target="p2M6NOosVOnFMMnS_r7A-44" edge="1">
          <mxGeometry width="50" height="50" relative="1" as="geometry">
            <mxPoint x="-31" y="1036" as="sourcePoint"/>
            <mxPoint x="19" y="986" as="targetPoint"/>
          </mxGeometry>
        </mxCell>
        <mxCell id="p2M6NOosVOnFMMnS_r7A-49" value="" style="endArrow=classic;html=1;fontSize=18;fontColor=#000000;exitX=1;exitY=0.5;exitDx=0;exitDy=0;" parent="1" source="p2M6NOosVOnFMMnS_r7A-43" target="p2M6NOosVOnFMMnS_r7A-45" edge="1">
          <mxGeometry width="50" height="50" relative="1" as="geometry">
            <mxPoint x="-31" y="1078" as="sourcePoint"/>
            <mxPoint x="19" y="1028" as="targetPoint"/>
          </mxGeometry>
        </mxCell>
        <mxCell id="p2M6NOosVOnFMMnS_r7A-50" value="" style="endArrow=classic;html=1;fontSize=18;fontColor=#000000;exitX=1;exitY=0.5;exitDx=0;exitDy=0;entryX=0.5;entryY=0;entryDx=0;entryDy=0;" parent="1" source="p2M6NOosVOnFMMnS_r7A-44" target="p2M6NOosVOnFMMnS_r7A-46" edge="1">
          <mxGeometry width="50" height="50" relative="1" as="geometry">
            <mxPoint x="125.5" y="848" as="sourcePoint"/>
            <mxPoint x="185" y="848" as="targetPoint"/>
            <Array as="points">
              <mxPoint x="410" y="838"/>
            </Array>
          </mxGeometry>
        </mxCell>
        <mxCell id="p2M6NOosVOnFMMnS_r7A-51" value="" style="endArrow=classic;html=1;fontSize=18;fontColor=#000000;exitX=1;exitY=0.25;exitDx=0;exitDy=0;entryX=0.5;entryY=1;entryDx=0;entryDy=0;" parent="1" source="p2M6NOosVOnFMMnS_r7A-45" target="p2M6NOosVOnFMMnS_r7A-46" edge="1">
          <mxGeometry width="50" height="50" relative="1" as="geometry">
            <mxPoint x="-31" y="1036" as="sourcePoint"/>
            <mxPoint x="19" y="986" as="targetPoint"/>
            <Array as="points">
              <mxPoint x="410" y="962"/>
            </Array>
          </mxGeometry>
        </mxCell>
        <mxCell id="p2M6NOosVOnFMMnS_r7A-53" value="" style="endArrow=classic;html=1;fontSize=18;fontColor=#000000;exitX=1;exitY=0.25;exitDx=0;exitDy=0;entryX=0;entryY=0.25;entryDx=0;entryDy=0;" parent="1" source="p2M6NOosVOnFMMnS_r7A-46" target="p2M6NOosVOnFMMnS_r7A-47" edge="1">
          <mxGeometry width="50" height="50" relative="1" as="geometry">
            <mxPoint x="-31" y="1036" as="sourcePoint"/>
            <mxPoint x="19" y="986" as="targetPoint"/>
          </mxGeometry>
        </mxCell>
        <mxCell id="p2M6NOosVOnFMMnS_r7A-54" value="" style="endArrow=classic;html=1;fontSize=18;fontColor=#000000;exitX=0;exitY=0.75;exitDx=0;exitDy=0;entryX=1;entryY=0.75;entryDx=0;entryDy=0;" parent="1" source="p2M6NOosVOnFMMnS_r7A-47" target="p2M6NOosVOnFMMnS_r7A-46" edge="1">
          <mxGeometry width="50" height="50" relative="1" as="geometry">
            <mxPoint x="480" y="897" as="sourcePoint"/>
            <mxPoint x="550" y="897" as="targetPoint"/>
          </mxGeometry>
        </mxCell>
        <mxCell id="p2M6NOosVOnFMMnS_r7A-59" value="编辑器" style="rounded=0;whiteSpace=wrap;html=1;fontSize=18;" parent="1" vertex="1">
          <mxGeometry x="-207" y="877" width="120" height="60" as="geometry"/>
        </mxCell>
        <mxCell id="p2M6NOosVOnFMMnS_r7A-61" value="" style="endArrow=classic;html=1;fontSize=18;fontColor=#000000;exitX=1;exitY=0.25;exitDx=0;exitDy=0;entryX=0;entryY=0.5;entryDx=0;entryDy=0;" parent="1" source="p2M6NOosVOnFMMnS_r7A-59" target="p2M6NOosVOnFMMnS_r7A-42" edge="1">
          <mxGeometry width="50" height="50" relative="1" as="geometry">
            <mxPoint x="305" y="972" as="sourcePoint"/>
            <mxPoint x="420" y="927" as="targetPoint"/>
            <Array as="points"/>
          </mxGeometry>
        </mxCell>
        <mxCell id="p2M6NOosVOnFMMnS_r7A-63" value="" style="endArrow=classic;html=1;fontSize=18;fontColor=#000000;exitX=1;exitY=0.75;exitDx=0;exitDy=0;entryX=0;entryY=0.5;entryDx=0;entryDy=0;" parent="1" source="p2M6NOosVOnFMMnS_r7A-59" target="p2M6NOosVOnFMMnS_r7A-43" edge="1">
          <mxGeometry width="50" height="50" relative="1" as="geometry">
            <mxPoint x="-77" y="902" as="sourcePoint"/>
            <mxPoint x="5.5" y="848" as="targetPoint"/>
            <Array as="points"/>
          </mxGeometry>
        </mxCell>
        <mxCell id="p2M6NOosVOnFMMnS_r7A-64" value="" style="endArrow=classic;html=1;fontSize=18;fontColor=#000000;exitX=0;exitY=0.5;exitDx=0;exitDy=0;entryX=1;entryY=0.5;entryDx=0;entryDy=0;" parent="1" source="p2M6NOosVOnFMMnS_r7A-46" target="p2M6NOosVOnFMMnS_r7A-59" edge="1">
          <mxGeometry width="50" height="50" relative="1" as="geometry">
            <mxPoint x="-261" y="1078" as="sourcePoint"/>
            <mxPoint x="-211" y="1028" as="targetPoint"/>
          </mxGeometry>
        </mxCell>
        <mxCell id="p2M6NOosVOnFMMnS_r7A-65" value="&lt;div&gt;更新UI&lt;/div&gt;" style="text;html=1;resizable=0;points=[];align=center;verticalAlign=middle;labelBackgroundColor=#ffffff;fontSize=18;fontColor=#000000;" parent="p2M6NOosVOnFMMnS_r7A-64" vertex="1" connectable="0">
          <mxGeometry x="-0.2449" relative="1" as="geometry">
            <mxPoint as="offset"/>
          </mxGeometry>
        </mxCell>
        <mxCell id="p2M6NOosVOnFMMnS_r7A-67" value="通讯设置" style="rounded=0;whiteSpace=wrap;html=1;fontSize=18;fillColor=#f8cecc;strokeColor=#b85450;" parent="1" vertex="1">
          <mxGeometry x="-93.5" y="1301" width="120" height="60" as="geometry"/>
        </mxCell>
        <mxCell id="p2M6NOosVOnFMMnS_r7A-68" value="DIDO设置" style="rounded=0;whiteSpace=wrap;html=1;fontSize=18;fillColor=#f8cecc;strokeColor=#b85450;" parent="1" vertex="1">
          <mxGeometry x="173" y="1201" width="120" height="60" as="geometry"/>
        </mxCell>
        <mxCell id="p2M6NOosVOnFMMnS_r7A-69" value="PIPO设置" style="rounded=0;whiteSpace=wrap;html=1;fontSize=18;fillColor=#f8cecc;strokeColor=#b85450;" parent="1" vertex="1">
          <mxGeometry x="173" y="1296" width="120" height="60" as="geometry"/>
        </mxCell>
        <mxCell id="p2M6NOosVOnFMMnS_r7A-71" value="系统设置" style="rounded=0;whiteSpace=wrap;html=1;fontSize=18;fillColor=#f8cecc;strokeColor=#b85450;" parent="1" vertex="1">
          <mxGeometry x="-93.5" y="1201" width="120" height="60" as="geometry"/>
        </mxCell>
        <mxCell id="p2M6NOosVOnFMMnS_r7A-75" value="AIAO设置" style="rounded=0;whiteSpace=wrap;html=1;fontSize=18;fillColor=#f8cecc;strokeColor=#b85450;" parent="1" vertex="1">
          <mxGeometry x="331.5" y="1201" width="120" height="60" as="geometry"/>
        </mxCell>
        <mxCell id="p2M6NOosVOnFMMnS_r7A-76" value="子板卡配置" style="rounded=0;whiteSpace=wrap;html=1;fontSize=18;fillColor=#f8cecc;strokeColor=#b85450;" parent="1" vertex="1">
          <mxGeometry x="331.5" y="1296" width="120" height="60" as="geometry"/>
        </mxCell>
        <mxCell id="p2M6NOosVOnFMMnS_r7A-81" value="" style="endArrow=none;html=1;fontSize=18;fontColor=#000000;" parent="1" edge="1">
          <mxGeometry width="50" height="50" relative="1" as="geometry">
            <mxPoint x="-192" y="1549.5" as="sourcePoint"/>
            <mxPoint x="-142" y="1507" as="targetPoint"/>
            <Array as="points">
              <mxPoint x="-167" y="1524.5"/>
            </Array>
          </mxGeometry>
        </mxCell>
        <mxCell id="p2M6NOosVOnFMMnS_r7A-82" value="基本配置" style="text;html=1;resizable=0;points=[];align=center;verticalAlign=middle;labelBackgroundColor=#ffffff;fontSize=18;fontColor=#000000;" parent="p2M6NOosVOnFMMnS_r7A-81" vertex="1" connectable="0">
          <mxGeometry x="0.7414" relative="1" as="geometry">
            <mxPoint x="61.5" y="-327" as="offset"/>
          </mxGeometry>
        </mxCell>
        <mxCell id="p2M6NOosVOnFMMnS_r7A-85" value="选择配置" style="text;html=1;resizable=0;points=[];align=center;verticalAlign=middle;labelBackgroundColor=#ffffff;fontSize=18;fontColor=#000000;" parent="p2M6NOosVOnFMMnS_r7A-81" vertex="1" connectable="0">
          <mxGeometry x="0.8344" relative="1" as="geometry">
            <mxPoint x="325.5" y="-330.5" as="offset"/>
          </mxGeometry>
        </mxCell>
        <mxCell id="p2M6NOosVOnFMMnS_r7A-88" value="硬件组态" style="text;html=1;resizable=0;points=[];align=center;verticalAlign=middle;labelBackgroundColor=#ffffff;fontSize=18;fontColor=#000000;" parent="p2M6NOosVOnFMMnS_r7A-81" vertex="1" connectable="0">
          <mxGeometry x="0.812" y="1" relative="1" as="geometry">
            <mxPoint x="39" y="-375.5" as="offset"/>
          </mxGeometry>
        </mxCell>
        <mxCell id="p2M6NOosVOnFMMnS_r7A-90" value="诊断项" style="rounded=0;whiteSpace=wrap;html=1;fontSize=18;fillColor=#f8cecc;strokeColor=#b85450;" parent="1" vertex="1">
          <mxGeometry x="478" y="1201" width="120" height="152" as="geometry"/>
        </mxCell>
        <mxCell id="p2M6NOosVOnFMMnS_r7A-93" value="SCode" style="rounded=0;whiteSpace=wrap;html=1;fontSize=18;fillColor=#dae8fc;strokeColor=#6c8ebf;" parent="1" vertex="1">
          <mxGeometry x="-16.5" y="1807" width="120" height="60" as="geometry"/>
        </mxCell>
        <mxCell id="p2M6NOosVOnFMMnS_r7A-94" value="GCode" style="rounded=0;whiteSpace=wrap;html=1;fontSize=18;fillColor=#dae8fc;strokeColor=#6c8ebf;" parent="1" vertex="1">
          <mxGeometry x="-16.5" y="1915" width="120" height="60" as="geometry"/>
        </mxCell>
        <mxCell id="p2M6NOosVOnFMMnS_r7A-95" value="任务信息" style="rounded=0;whiteSpace=wrap;html=1;fontSize=18;fillColor=#dae8fc;strokeColor=#6c8ebf;" parent="1" vertex="1">
          <mxGeometry x="-16.5" y="1700" width="120" height="60" as="geometry"/>
        </mxCell>
        <mxCell id="p2M6NOosVOnFMMnS_r7A-96" value="&lt;div&gt;调度器&lt;/div&gt;&lt;div&gt;(类CMU)&lt;br&gt;&lt;/div&gt;" style="rounded=0;whiteSpace=wrap;html=1;fontSize=18;fillColor=#f8cecc;strokeColor=#b85450;" parent="1" vertex="1">
          <mxGeometry x="329.5" y="1699" width="120" height="60" as="geometry"/>
        </mxCell>
        <mxCell id="p2M6NOosVOnFMMnS_r7A-97" value="LCP" style="rounded=0;whiteSpace=wrap;html=1;fontSize=18;fillColor=#f8cecc;strokeColor=#b85450;" parent="1" vertex="1">
          <mxGeometry x="329.5" y="1806.5" width="120" height="60" as="geometry"/>
        </mxCell>
        <mxCell id="p2M6NOosVOnFMMnS_r7A-98" value="MCP" style="rounded=0;whiteSpace=wrap;html=1;fontSize=18;fillColor=#f8cecc;strokeColor=#b85450;" parent="1" vertex="1">
          <mxGeometry x="329.5" y="1914" width="120" height="60" as="geometry"/>
        </mxCell>
        <mxCell id="p2M6NOosVOnFMMnS_r7A-99" value="" style="endArrow=classic;html=1;fontSize=18;fontColor=#000000;exitX=1;exitY=0.5;exitDx=0;exitDy=0;entryX=0;entryY=0.5;entryDx=0;entryDy=0;" parent="1" source="p2M6NOosVOnFMMnS_r7A-95" target="p2M6NOosVOnFMMnS_r7A-96" edge="1">
          <mxGeometry width="50" height="50" relative="1" as="geometry">
            <mxPoint x="-216" y="2046" as="sourcePoint"/>
            <mxPoint x="-166" y="1996" as="targetPoint"/>
          </mxGeometry>
        </mxCell>
        <mxCell id="p2M6NOosVOnFMMnS_r7A-102" value="" style="endArrow=classic;html=1;fontSize=18;fontColor=#000000;exitX=1;exitY=0.5;exitDx=0;exitDy=0;entryX=0;entryY=0.5;entryDx=0;entryDy=0;" parent="1" source="p2M6NOosVOnFMMnS_r7A-93" target="p2M6NOosVOnFMMnS_r7A-97" edge="1">
          <mxGeometry width="50" height="50" relative="1" as="geometry">
            <mxPoint x="113.5" y="1740" as="sourcePoint"/>
            <mxPoint x="305" y="1740" as="targetPoint"/>
          </mxGeometry>
        </mxCell>
        <mxCell id="p2M6NOosVOnFMMnS_r7A-103" value="" style="endArrow=classic;html=1;fontSize=18;fontColor=#000000;exitX=1;exitY=0.5;exitDx=0;exitDy=0;entryX=0;entryY=0.5;entryDx=0;entryDy=0;" parent="1" source="p2M6NOosVOnFMMnS_r7A-94" target="p2M6NOosVOnFMMnS_r7A-98" edge="1">
          <mxGeometry width="50" height="50" relative="1" as="geometry">
            <mxPoint x="123.5" y="1750" as="sourcePoint"/>
            <mxPoint x="315" y="1750" as="targetPoint"/>
          </mxGeometry>
        </mxCell>
        <mxCell id="p2M6NOosVOnFMMnS_r7A-101" value="通讯组件" style="rounded=0;whiteSpace=wrap;html=1;fontSize=18;fillColor=#dae8fc;strokeColor=#6c8ebf;" parent="1" vertex="1">
          <mxGeometry x="161" y="1697" width="78" height="277" as="geometry"/>
        </mxCell>
        <mxCell id="p2M6NOosVOnFMMnS_r7A-104" value="" style="endArrow=classic;html=1;fontSize=18;fontColor=#000000;exitX=0.25;exitY=1;exitDx=0;exitDy=0;entryX=0.25;entryY=0;entryDx=0;entryDy=0;" parent="1" source="p2M6NOosVOnFMMnS_r7A-96" target="p2M6NOosVOnFMMnS_r7A-97" edge="1">
          <mxGeometry width="50" height="50" relative="1" as="geometry">
            <mxPoint x="600.5" y="1828" as="sourcePoint"/>
            <mxPoint x="650.5" y="1778" as="targetPoint"/>
          </mxGeometry>
        </mxCell>
        <mxCell id="p2M6NOosVOnFMMnS_r7A-105" value="" style="endArrow=classic;html=1;fontSize=18;fontColor=#000000;exitX=1;exitY=0.5;exitDx=0;exitDy=0;entryX=1;entryY=0.25;entryDx=0;entryDy=0;" parent="1" source="p2M6NOosVOnFMMnS_r7A-96" target="p2M6NOosVOnFMMnS_r7A-98" edge="1">
          <mxGeometry width="50" height="50" relative="1" as="geometry">
            <mxPoint x="399.5" y="1769" as="sourcePoint"/>
            <mxPoint x="399.5" y="1816.5" as="targetPoint"/>
            <Array as="points">
              <mxPoint x="471" y="1729"/>
              <mxPoint x="471" y="1929"/>
            </Array>
          </mxGeometry>
        </mxCell>
        <mxCell id="r77TQMJBqD1MutyU2JvS-4" value="" style="endArrow=classic;html=1;fontSize=18;fontColor=#000000;exitX=0.75;exitY=0;exitDx=0;exitDy=0;entryX=0.75;entryY=1;entryDx=0;entryDy=0;" edge="1" parent="1" source="p2M6NOosVOnFMMnS_r7A-97" target="p2M6NOosVOnFMMnS_r7A-96">
          <mxGeometry width="50" height="50" relative="1" as="geometry">
            <mxPoint x="399.5" y="1769" as="sourcePoint"/>
            <mxPoint x="399.5" y="1816.5" as="targetPoint"/>
          </mxGeometry>
        </mxCell>
        <mxCell id="r77TQMJBqD1MutyU2JvS-6" value="" style="endArrow=none;html=1;fontSize=18;fontColor=#000000;exitX=1;exitY=0.25;exitDx=0;exitDy=0;entryX=1;entryY=0.75;entryDx=0;entryDy=0;startArrow=classic;startFill=1;endFill=0;" edge="1" parent="1" source="p2M6NOosVOnFMMnS_r7A-96" target="p2M6NOosVOnFMMnS_r7A-98">
          <mxGeometry width="50" height="50" relative="1" as="geometry">
            <mxPoint x="459.5" y="1739" as="sourcePoint"/>
            <mxPoint x="459.5" y="1939" as="targetPoint"/>
            <Array as="points">
              <mxPoint x="481" y="1714"/>
              <mxPoint x="481" y="1959"/>
            </Array>
          </mxGeometry>
        </mxCell>
      </root>
    </mxGraphModel>
  </diagram>
</mxfile>
